<svg xmlns="http://www.w3.org/2000/svg" width="77.84" height="60.057" viewBox="0 0 77.84 60.057">
  <g id="Сгруппировать_43" data-name="Сгруппировать 43" opacity="0.496">
    <path id="Прямоугольник_12" data-name="Прямоугольник 12" d="M0,0H0A30.795,30.795,0,0,1,30.795,30.795V60.057a0,0,0,0,1,0,0h0A30.795,30.795,0,0,1,0,29.262V0A0,0,0,0,1,0,0Z"/>
    <path id="Контур_10" data-name="Контур 10" d="M140.478,116.07h0V100.528A19.618,19.618,0,0,1,160.1,80.911h0V96.452A19.617,19.617,0,0,1,140.478,116.07Z" transform="translate(-106.985 -80.911)"/>
    <path id="Прямоугольник_13" data-name="Прямоугольник 13" d="M0,0H22.5a21.85,21.85,0,0,1,21.85,21.85v0a0,0,0,0,1,0,0H21.85A21.85,21.85,0,0,1,0,0V0A0,0,0,0,1,0,0Z" transform="translate(33.493 38.207)"/>
  </g>
</svg>
