<svg xmlns="http://www.w3.org/2000/svg" width="56.772" height="60.056" viewBox="0 0 56.772 60.056">
  <g id="Сгруппировать_46" data-name="Сгруппировать 46" opacity="0.5">
    <path id="Контур_11" data-name="Контур 11" d="M346.126,80.911A28.386,28.386,0,0,0,317.74,109.3h56.772A28.386,28.386,0,0,0,346.126,80.911Z" transform="translate(-317.74 -80.911)"/>
    <g id="Сгруппировать_35" data-name="Сгруппировать 35" transform="translate(0 31.67)">
      <path id="Контур_12" data-name="Контур 12" d="M371.408,141.446a25.282,25.282,0,0,1-50.563,0h-3.1a28.386,28.386,0,0,0,56.772,0Z" transform="translate(-317.74 -141.446)"/>
      <path id="Контур_13" data-name="Контур 13" d="M352.6,162.728a21.306,21.306,0,0,0,21.282-21.282h-3.1a18.177,18.177,0,1,1-36.354,0h-3.105A21.306,21.306,0,0,0,352.6,162.728Z" transform="translate(-324.215 -141.446)"/>
    </g>
  </g>
</svg>
