<svg xmlns="http://www.w3.org/2000/svg" width="146.161" height="32.799" viewBox="0 0 146.161 32.799">
  <g id="Сгруппировать_54" data-name="Сгруппировать 54" transform="translate(-627.686 281.751)">
    <g id="Сгруппировать_5" data-name="Сгруппировать 5" transform="translate(627.686 -281.751)">
      <g id="Сгруппировать_3" data-name="Сгруппировать 3" transform="translate(0)">
        <g id="Сгруппировать_1" data-name="Сгруппировать 1" transform="translate(18.865 3.083)">
          <path id="Контур_1" data-name="Контур 1" d="M687.973-258.506a16.183,16.183,0,0,0,7,13.316,16.375,16.375,0,0,0,6.939-13.391,16.374,16.374,0,0,0-6.833-13.316A16.188,16.188,0,0,0,687.973-258.506Z" transform="translate(-687.973 271.898)" fill="#b92653"/>
        </g>
        <g id="Сгруппировать_2" data-name="Сгруппировать 2">
          <path id="Контур_2" data-name="Контур 2" d="M644.293-265.276a18.428,18.428,0,0,1,7.275-14.667,16.321,16.321,0,0,0-7.482-1.808,16.4,16.4,0,0,0-16.4,16.4,16.4,16.4,0,0,0,16.4,16.4,16.327,16.327,0,0,0,7.366-1.748A18.425,18.425,0,0,1,644.293-265.276Z" transform="translate(-627.686 281.751)" fill="#b92653"/>
        </g>
      </g>
      <g id="Сгруппировать_4" data-name="Сгруппировать 4" transform="translate(18.954 0.371)">
        <path id="Контур_3" data-name="Контур 3" d="M704.361-248.357a16.122,16.122,0,0,1-16.1-16.1,16.122,16.122,0,0,1,16.1-16.1,16.121,16.121,0,0,1,16.1,16.1A16.121,16.121,0,0,1,704.361-248.357Zm0-29.948a13.861,13.861,0,0,0-13.845,13.845,13.861,13.861,0,0,0,13.845,13.845,13.861,13.861,0,0,0,13.845-13.845A13.861,13.861,0,0,0,704.361-278.306Z" transform="translate(-688.257 280.564)" fill="#fff"/>
      </g>
    </g>
    <g id="Сгруппировать_7" data-name="Сгруппировать 7" transform="translate(687.873 -276.633)">
      <path id="Контур_4" data-name="Контур 4" d="M820.024-242.355v-21.8h2.885v19.231h10.739v2.573Z" transform="translate(-820.024 264.546)" fill="#fff"/>
      <path id="Контур_5" data-name="Контур 5" d="M873.392-253.824q0-5.428,2.915-8.5a9.912,9.912,0,0,1,7.526-3.071,10.443,10.443,0,0,1,5.444,1.443,9.425,9.425,0,0,1,3.7,4.023,13.069,13.069,0,0,1,1.271,5.853,12.848,12.848,0,0,1-1.338,5.935,9.139,9.139,0,0,1-3.793,3.964,10.836,10.836,0,0,1-5.295,1.346,10.308,10.308,0,0,1-5.5-1.487,9.565,9.565,0,0,1-3.674-4.06A12.3,12.3,0,0,1,873.392-253.824Zm2.975.045a8.736,8.736,0,0,0,2.119,6.21A6.972,6.972,0,0,0,883.8-245.3a6.962,6.962,0,0,0,5.362-2.29,9.263,9.263,0,0,0,2.1-6.5,11.17,11.17,0,0,0-.9-4.648,6.915,6.915,0,0,0-2.632-3.079,7.138,7.138,0,0,0-3.889-1.093,7.379,7.379,0,0,0-5.273,2.1Q876.367-258.7,876.367-253.779Z" transform="translate(-856.692 265.395)" fill="#fff"/>
      <path id="Контур_6" data-name="Контур 6" d="M962.169-251.724v-2.558l9.236-.015v8.091a16.312,16.312,0,0,1-4.387,2.551,13.013,13.013,0,0,1-4.64.855,12.382,12.382,0,0,1-5.838-1.376,9.091,9.091,0,0,1-3.963-3.979,12.521,12.521,0,0,1-1.339-5.815,13.494,13.494,0,0,1,1.331-5.942,8.854,8.854,0,0,1,3.83-4.1,12,12,0,0,1,5.756-1.339,11.409,11.409,0,0,1,4.276.766,7.091,7.091,0,0,1,3,2.134,9.473,9.473,0,0,1,1.651,3.57l-2.6.714a8.071,8.071,0,0,0-1.219-2.618,5.008,5.008,0,0,0-2.082-1.525,7.641,7.641,0,0,0-3-.573,8.848,8.848,0,0,0-3.421.6,6.382,6.382,0,0,0-2.328,1.584,7.556,7.556,0,0,0-1.376,2.157,11.409,11.409,0,0,0-.833,4.388,10.641,10.641,0,0,0,1,4.878,6.427,6.427,0,0,0,2.922,2.915,9.049,9.049,0,0,0,4.075.952,9.674,9.674,0,0,0,3.659-.722,9.441,9.441,0,0,0,2.707-1.539v-4.06Z" transform="translate(-910.178 265.363)" fill="#fff"/>
      <path id="Контур_7" data-name="Контур 7" d="M1028.133-253.824q0-5.428,2.915-8.5a9.912,9.912,0,0,1,7.526-3.071,10.443,10.443,0,0,1,5.444,1.443,9.426,9.426,0,0,1,3.7,4.023,13.071,13.071,0,0,1,1.272,5.853,12.849,12.849,0,0,1-1.339,5.935,9.135,9.135,0,0,1-3.793,3.964,10.835,10.835,0,0,1-5.3,1.346,10.308,10.308,0,0,1-5.5-1.487,9.566,9.566,0,0,1-3.674-4.06A12.3,12.3,0,0,1,1028.133-253.824Zm2.975.045a8.735,8.735,0,0,0,2.119,6.21,6.972,6.972,0,0,0,5.317,2.268,6.961,6.961,0,0,0,5.362-2.29,9.263,9.263,0,0,0,2.1-6.5,11.17,11.17,0,0,0-.9-4.648,6.916,6.916,0,0,0-2.632-3.079,7.139,7.139,0,0,0-3.89-1.093,7.38,7.38,0,0,0-5.273,2.1Q1031.108-258.7,1031.108-253.779Z" transform="translate(-963.011 265.395)" fill="#fff"/>
      <g id="Сгруппировать_6" data-name="Сгруппировать 6" transform="translate(68.057 3.819)">
        <path id="Контур_8" data-name="Контур 8" d="M1041.744-239.207a9.263,9.263,0,0,0,2.1-6.5,11.17,11.17,0,0,0-.9-4.648,6.964,6.964,0,0,0-2.278-2.837,8.105,8.105,0,0,0-.948.769q-2.209,2.1-2.209,7.028a8.736,8.736,0,0,0,2.119,6.21,7.511,7.511,0,0,0,1.051.932A7.381,7.381,0,0,0,1041.744-239.207Z" transform="translate(-1037.513 253.191)" fill="#b92653"/>
      </g>
    </g>
  </g>
</svg>
